<?xml version="1.0" encoding="utf-8"?>
<svg xmlns="http://www.w3.org/2000/svg" style="margin: auto; background: rgb(241, 242, 243); display: block; shape-rendering: auto; animation-play-state: running; animation-delay: 0s;" width="290" height="250" preserveAspectRatio="xMidYMid">
<style type="text/css" style="animation-play-state: running; animation-delay: 0s;">
  text {
    text-anchor: middle; font-size: 48px; opacity: 0;
  }
</style>
<g transform="translate(145,125)" style="animation-play-state: running; animation-delay: 0s;">
  <g transform="translate(0,0)" style="animation-play-state: running; animation-delay: 0s;"><g class="path" style="transform-origin: -79.755px 1.01944px; animation: 1s linear -0.6s infinite normal forwards running breath-029062a3-4f63-4066-95fc-5bdd485d9b2f; transform: scale(0.91);"><path d="M8.11 3.46L8.11 3.46Q6.58 2.02 5.18 1.27L5.18 1.27L5.18 1.27Q3.79 0.53 1.80 0.53L1.80 0.53L1.80 0.53Q-0.19 0.53-1.37 1.27L-1.37 1.27L-1.37 1.27Q-2.54 2.02-2.54 3.38L-2.54 3.38L-2.54 3.38Q-2.54 4.75-0.98 5.59L-0.98 5.59L-0.98 5.59Q0.58 6.43 2.69 6.43L2.69 6.43L2.69 6.43Q4.80 6.43 6.43 6.05L6.43 6.05L6.43 6.05Q7.39 5.18 8.11 3.46L8.11 3.46zM16.22 8.33L16.22 8.33L16.22 8.33Q17.04 8.59 17.95 8.69L17.95 8.69L17.95 8.69Q18.86 8.78 20.38 8.78L20.38 8.78L20.38 8.78Q21.89 8.78 23.47 7.97L23.47 7.97L23.47 7.97Q25.06 7.15 25.99 6.07L25.99 6.07L25.99 6.07Q26.93 4.99 27.65 3.65L27.65 3.65L27.65 3.65Q28.56 2.06 28.99 0.48L28.99 0.48L30.14 0.86L30.14 0.86Q28.90 4.94 26.18 7.34L26.18 7.34L26.18 7.34Q23.47 9.74 19.87 9.74L19.87 9.74L19.87 9.74Q17.04 9.74 15.96 9.34L15.96 9.34L15.96 9.34Q14.88 8.93 14.40 8.81L14.40 8.81L14.40 8.81Q13.92 8.69 13.13 8.09L13.13 8.09L13.13 8.09Q12.34 7.49 12.19 7.39L12.19 7.39L12.19 7.39Q11.81 7.10 10.22 5.52L10.22 5.52L10.22 5.52Q7.15 7.34 3.60 7.34L3.60 7.34L3.60 7.34Q0.05 7.34-1.82 6.22L-1.82 6.22L-1.82 6.22Q-3.70 5.09-3.70 3.38L-3.70 3.38L-3.70 3.38Q-3.70 1.68-2.33 0.65L-2.33 0.65L-2.33 0.65Q-0.96-0.38 1.78-0.38L1.78-0.38L1.78-0.38Q5.52-0.38 8.50 2.40L8.50 2.40L8.50 2.40Q9.07 0.62 9.46-1.54L9.46-1.54L12.67-20.11L12.67-20.11Q13.82-27.31 17.66-29.81L17.66-29.81L17.66-29.81Q21.02-31.97 25.30-31.97L25.30-31.97L25.30-31.97Q29.57-31.97 32.28-29.52L32.28-29.52L32.28-29.52Q34.99-27.07 34.99-21.79L34.99-21.79L33.84-21.79L33.84-21.79Q33.84-26.06 31.80-28.30L31.80-28.30L31.80-28.30Q29.76-30.53 26.64-30.53L26.64-30.53L26.64-30.53Q20.93-30.53 19.87-23.42L19.87-23.42L19.87-23.42Q19.87-22.66 18.65-15.53L18.65-15.53L18.65-15.53Q17.42-8.40 16.46-3.74L16.46-3.74L16.46-3.74Q15.46 1.87 11.09 4.94L11.09 4.94L11.09 4.94Q13.68 7.54 14.93 7.92L14.93 7.92L14.93 7.92Q15.41 8.06 16.22 8.33" fill="#1d0e0b" stroke="none" stroke-width="none" transform="translate(-95.39999389648438,12.134435136101457)" style="fill: rgb(0, 0, 0); animation-play-state: running; animation-delay: 0s;"></path></g><g class="path" style="transform-origin: -53.88px 3.01444px; animation: 1s linear -0.54s infinite normal forwards running breath-029062a3-4f63-4066-95fc-5bdd485d9b2f; transform: scale(0.91);"><path d="M39.65 0.43L39.65 0.43Q35.95 0.43 34.03-1.42L34.03-1.42L34.03-1.42Q32.11-3.26 32.11-6.07L32.11-6.07L32.11-6.07Q32.11-8.88 32.62-10.87L32.62-10.87L32.62-10.87Q33.12-12.86 34.27-14.71L34.27-14.71L34.27-14.71Q35.42-16.56 37.75-17.62L37.75-17.62L37.75-17.62Q40.08-18.67 43.56-18.67L43.56-18.67L43.56-18.67Q47.04-18.67 48.98-16.82L48.98-16.82L48.98-16.82Q50.93-14.98 50.93-11.76L50.93-11.76L50.93-11.76Q50.93-6.29 48.02-2.93L48.02-2.93L48.02-2.93Q45.12 0.43 39.65 0.43L39.65 0.43zM37.54-4.51L37.54-4.51L37.54-4.51Q37.54-0.67 39.77-0.67L39.77-0.67L39.77-0.67Q42-0.67 43.75-4.54L43.75-4.54L43.75-4.54Q45.50-8.40 45.50-13.73L45.50-13.73L45.50-13.73Q45.50-17.76 43.32-17.76L43.32-17.76L43.32-17.76Q41.14-17.76 39.34-14.09L39.34-14.09L39.34-14.09Q37.54-10.42 37.54-4.51" fill="#1d0e0b" stroke="none" stroke-width="none" transform="translate(-95.39999389648438,12.134435136101457)" style="fill: rgb(29, 14, 11); animation-play-state: running; animation-delay: 0s;"></path></g><g class="path" style="transform-origin: -31.75px 3.01443px; animation: 1s linear -0.48s infinite normal forwards running breath-029062a3-4f63-4066-95fc-5bdd485d9b2f; transform: scale(0.91);"><path d="M70.22 0.43L70.22 0.43L70.22 0.43Q66 0.43 65.62-3.26L65.62-3.26L65.62-3.26Q63.50 0.43 60.29 0.43L60.29 0.43L60.29 0.43Q57.07 0.43 55.18-1.51L55.18-1.51L55.18-1.51Q53.28-3.46 53.28-6.96L53.28-6.96L53.28-6.96Q53.28-12.43 55.97-15.55L55.97-15.55L55.97-15.55Q58.66-18.67 62.93-18.67L62.93-18.67L62.93-18.67Q66.43-18.67 67.58-15.36L67.58-15.36L67.58-15.36Q67.82-16.80 68.11-18.24L68.11-18.24L68.11-18.24Q71.66-18.24 73.39-18.53L73.39-18.53L74.02-18.67L70.70-0.53L70.70-0.53Q72.14-0.67 73.10-1.87L73.10-1.87L73.82-1.30L73.82-1.30Q72.38 0.43 70.22 0.43zM58.70-4.51L58.70-4.51Q58.70-2.35 59.26-1.51L59.26-1.51L59.26-1.51Q59.81-0.67 60.96-0.67L60.96-0.67L60.96-0.67Q62.11-0.67 63.31-1.92L63.31-1.92L63.31-1.92Q64.90-3.55 65.86-6.05L65.86-6.05L65.86-6.05Q66-6.67 66.41-9.05L66.41-9.05L66.41-9.05Q66.82-11.42 67.10-12.96L67.10-12.96L67.10-12.96Q66.96-14.78 66.10-16.13L66.10-16.13L66.10-16.13Q65.23-17.47 63.94-17.47L63.94-17.47L63.94-17.47Q61.58-17.47 60.14-13.27L60.14-13.27L60.14-13.27Q58.70-9.07 58.70-4.51L58.70-4.51" fill="#1d0e0b" stroke="none" stroke-width="none" transform="translate(-95.39999389648438,12.134435136101457)" style="fill: rgb(119, 64, 35); animation-play-state: running; animation-delay: 0s;"></path></g><g class="path" style="transform-origin: -8.02px -3.20056px; animation: 1s linear -0.42s infinite normal forwards running breath-029062a3-4f63-4066-95fc-5bdd485d9b2f; transform: scale(0.91);"><path d="M93.17 0.43L93.17 0.43L93.17 0.43Q88.94 0.43 88.56-3.17L88.56-3.17L88.56-3.17Q86.45 0.43 83.18 0.43L83.18 0.43L83.18 0.43Q79.92 0.43 78.19-1.42L78.19-1.42L78.19-1.42Q76.46-3.26 76.46-6.48L76.46-6.48L76.46-6.48Q76.46-12.14 79.15-15.41L79.15-15.41L79.15-15.41Q81.84-18.67 86.11-18.67L86.11-18.67L86.11-18.67Q88.56-18.67 89.90-17.18L89.90-17.18L89.90-17.18Q90.48-16.42 90.62-16.03L90.62-16.03L93.22-30.14L93.22-30.14Q91.78-30 90.82-28.80L90.82-28.80L90.10-29.38L90.10-29.38Q91.54-31.10 93.72-31.10L93.72-31.10L93.72-31.10Q95.90-31.10 97.10-30L97.10-30L97.10-30Q98.30-28.90 98.30-26.88L98.30-26.88L98.30-26.88Q98.30-26.50 98.21-25.63L98.21-25.63L98.21-25.63Q95.86-12.43 93.65-0.53L93.65-0.53L93.65-0.53Q95.09-0.67 96.05-1.87L96.05-1.87L96.77-1.30L96.77-1.30Q95.33 0.43 93.17 0.43zM81.89-4.51L81.89-4.51Q81.89-2.30 82.34-1.49L82.34-1.49L82.34-1.49Q82.80-0.67 83.78-0.67L83.78-0.67L83.78-0.67Q84.77-0.67 85.68-1.34L85.68-1.34L85.68-1.34Q86.59-2.02 87.22-3.07L87.22-3.07L87.22-3.07Q88.37-4.85 88.85-6.10L88.85-6.10L90.24-13.68L90.24-13.68Q90.14-15.22 89.23-16.49L89.23-16.49L89.23-16.49Q88.32-17.76 86.11-17.76L86.11-17.76L86.11-17.76Q84.58-17.76 83.23-13.25L83.23-13.25L83.23-13.25Q81.89-8.74 81.89-4.51L81.89-4.51" fill="#1d0e0b" stroke="none" stroke-width="none" transform="translate(-95.39999389648438,12.134435136101457)" style="fill: rgb(216, 140, 81); animation-play-state: running; animation-delay: 0s;"></path></g><g class="path" style="transform-origin: 8.87999px 3.01444px; animation: 1s linear -0.36s infinite normal forwards running breath-029062a3-4f63-4066-95fc-5bdd485d9b2f; transform: scale(0.91);"><path d="M108.29-1.30L108.29-1.30Q106.85 0.43 104.69 0.43L104.69 0.43L104.69 0.43Q102.53 0.43 101.30-0.67L101.30-0.67L101.30-0.67Q100.08-1.78 100.08-3.55L100.08-3.55L100.08-3.55Q100.08-4.18 100.85-8.78L100.85-8.78L102.43-17.38L100.42-17.38L100.51-18.24L102.58-18.24L102.58-18.24Q106.13-18.24 107.81-18.53L107.81-18.53L108.48-18.67L105.17-0.53L105.17-0.53Q106.61-0.67 107.57-1.87L107.57-1.87L108.29-1.30" fill="#1d0e0b" stroke="none" stroke-width="none" transform="translate(-95.39999389648438,12.134435136101457)" style="fill: rgb(243, 231, 201); animation-play-state: running; animation-delay: 0s;"></path></g><g class="path" style="transform-origin: 11.14px -13.6156px; animation: 1s linear -0.3s infinite normal forwards running breath-029062a3-4f63-4066-95fc-5bdd485d9b2f; transform: scale(0.91);"><path d="M104.06-23.28L104.06-23.28L104.06-23.28Q103.06-24.29 103.06-25.73L103.06-25.73L103.06-25.73Q103.06-27.17 104.06-28.20L104.06-28.20L104.06-28.20Q105.07-29.23 106.51-29.23L106.51-29.23L106.51-29.23Q107.95-29.23 108.98-28.20L108.98-28.20L108.98-28.20Q110.02-27.17 110.02-25.73L110.02-25.73L110.02-25.73Q110.02-24.29 108.98-23.28L108.98-23.28L108.98-23.28Q107.95-22.27 106.51-22.27L106.51-22.27L106.51-22.27Q105.07-22.27 104.06-23.28" fill="#1d0e0b" stroke="none" stroke-width="none" transform="translate(-95.39999389648438,12.134435136101457)" style="fill: rgb(0, 0, 0); animation-play-state: running; animation-delay: 0s;"></path></g><g class="path" style="transform-origin: 26.545px 3.01445px; animation: 1s linear -0.24s infinite normal forwards running breath-029062a3-4f63-4066-95fc-5bdd485d9b2f; transform: scale(0.91);"><path d="M129.60-0.53L129.60-0.53L129.60-0.53Q130.75-0.53 132-1.87L132-1.87L132.72-1.30L132.72-1.30Q132.38-0.62 131.23-0.10L131.23-0.10L131.23-0.10Q130.08 0.43 128.69 0.43L128.69 0.43L128.69 0.43Q124.32 0.43 124.32-3.50L124.32-3.50L124.32-3.50Q124.32-5.18 125.18-9.50L125.18-9.50L125.18-9.50Q126.05-13.82 126.05-15.17L126.05-15.17L126.05-15.17Q126.05-17.23 124.08-17.23L124.08-17.23L124.08-17.23Q122.50-17.23 121.03-15.17L121.03-15.17L121.03-15.17Q119.57-13.10 118.61-9.50L118.61-9.50L116.98-0.53L116.98-0.53Q118.46-0.67 119.42-1.87L119.42-1.87L120.14-1.30L120.14-1.30Q118.70 0.43 116.54 0.43L116.54 0.43L116.54 0.43Q114.38 0.43 113.16-0.67L113.16-0.67L113.16-0.67Q111.94-1.78 111.94-3.55L111.94-3.55L111.94-3.55Q111.94-4.22 112.70-8.83L112.70-8.83L114.29-17.71L114.29-17.71Q112.85-17.57 111.89-16.37L111.89-16.37L111.17-16.94L111.17-16.94Q112.61-18.67 114.79-18.67L114.79-18.67L114.79-18.67Q116.98-18.67 118.18-17.57L118.18-17.57L118.18-17.57Q119.38-16.46 119.38-14.45L119.38-14.45L119.38-14.16L119.38-14.16Q121.34-18.67 125.52-18.67L125.52-18.67L125.52-18.67Q128.35-18.67 129.94-17.06L129.94-17.06L129.94-17.06Q131.52-15.46 131.52-12.62L131.52-12.62L131.52-12.62Q131.52-11.14 130.61-6.89L130.61-6.89L130.61-6.89Q129.70-2.64 129.60-0.53" fill="#1d0e0b" stroke="none" stroke-width="none" transform="translate(-95.39999389648438,12.134435136101457)" style="fill: rgb(29, 14, 11); animation-play-state: running; animation-delay: 0s;"></path></g><g class="path" style="transform-origin: 49.27px 7.21444px; animation: 1s linear -0.18s infinite normal forwards running breath-029062a3-4f63-4066-95fc-5bdd485d9b2f; transform: scale(0.91);"><path d="M150.77 5.23L150.77 5.23L150.77 5.23Q152.50 5.23 153.74 3.89L153.74 3.89L154.42 4.46L154.42 4.46Q153.26 6.10 150.77 6.10L150.77 6.10L150.77 6.10Q149.71 6.10 148.61 5.86L148.61 5.86L148.61 5.86Q145.34 8.83 140.26 8.83L140.26 8.83L140.26 8.83Q137.23 8.83 135.58 7.80L135.58 7.80L135.58 7.80Q133.92 6.77 133.92 5.11L133.92 5.11L133.92 5.11Q133.92 3.46 134.95 2.47L134.95 2.47L134.95 2.47Q135.98 1.49 138.62 1.49L138.62 1.49L138.62 1.49Q141.26 1.49 145.58 3.65L145.58 3.65L147.07-4.32L147.07-4.32Q144.91-0.34 141.50-0.34L141.50-0.34L141.50-0.34Q134.98-0.34 134.98-6.77L134.98-6.77L134.98-6.77Q134.98-12.14 137.69-15.41L137.69-15.41L137.69-15.41Q140.40-18.67 144.62-18.67L144.62-18.67L144.62-18.67Q147.07-18.67 148.42-17.18L148.42-17.18L148.42-17.18Q148.80-16.75 149.18-15.89L149.18-15.89L149.62-18.24L149.62-18.24Q153.17-18.24 154.80-18.53L154.80-18.53L155.42-18.67L152.26-0.96L152.26-0.96Q151.54 2.78 149.38 5.09L149.38 5.09L149.38 5.09Q150 5.23 150.77 5.23zM140.40-5.28L140.40-5.28Q140.40-3.07 140.83-2.33L140.83-2.33L140.83-2.33Q141.26-1.58 142.46-1.58L142.46-1.58L142.46-1.58Q143.66-1.58 144.91-2.88L144.91-2.88L144.91-2.88Q146.16-4.18 146.71-5.30L146.71-5.30L146.71-5.30Q147.26-6.43 147.65-7.49L147.65-7.49L148.66-13.01L148.66-13.34L148.66-13.34Q148.66-17.76 144.62-17.76L144.62-17.76L144.62-17.76Q143.09-17.76 141.74-13.58L141.74-13.58L141.74-13.58Q140.40-9.41 140.40-5.28L140.40-5.28zM140.06 7.87L140.06 7.87L140.06 7.87Q143.90 7.87 145.25 4.56L145.25 4.56L144.58 4.22L144.58 4.22Q144 3.94 143.88 3.86L143.88 3.86L143.88 3.86Q143.76 3.79 143.23 3.55L143.23 3.55L143.23 3.55Q142.70 3.31 142.46 3.24L142.46 3.24L142.46 3.24Q142.22 3.17 141.72 2.98L141.72 2.98L141.72 2.98Q141.22 2.78 140.88 2.71L140.88 2.71L140.88 2.71Q140.54 2.64 140.11 2.54L140.11 2.54L140.11 2.54Q139.39 2.40 138 2.40L138 2.40L138 2.40Q136.61 2.40 135.77 3.07L135.77 3.07L135.77 3.07Q134.93 3.74 134.93 5.04L134.93 5.04L134.93 5.04Q134.93 6.34 136.32 7.10L136.32 7.10L136.32 7.10Q137.71 7.87 140.06 7.87" fill="#1d0e0b" stroke="none" stroke-width="none" transform="translate(-95.39999389648438,12.134435136101457)" style="fill: rgb(119, 64, 35); animation-play-state: running; animation-delay: 0s;"></path></g><g class="path" style="transform-origin: 65.47px 9.03443px; animation: 1s linear -0.12s infinite normal forwards running breath-029062a3-4f63-4066-95fc-5bdd485d9b2f; transform: scale(0.91);"><path d="M158.40-0.62L158.40-0.62L158.40-0.62Q157.39-1.63 157.39-3.07L157.39-3.07L157.39-3.07Q157.39-4.51 158.40-5.54L158.40-5.54L158.40-5.54Q159.41-6.58 160.85-6.58L160.85-6.58L160.85-6.58Q162.29-6.58 163.32-5.54L163.32-5.54L163.32-5.54Q164.35-4.51 164.35-3.07L164.35-3.07L164.35-3.07Q164.35-1.63 163.32-0.62L163.32-0.62L163.32-0.62Q162.29 0.38 160.85 0.38L160.85 0.38L160.85 0.38Q159.41 0.38 158.40-0.62" fill="#1d0e0b" stroke="none" stroke-width="none" transform="translate(-95.39999389648438,12.134435136101457)" style="fill: rgb(216, 140, 81); animation-play-state: running; animation-delay: 0s;"></path></g><g class="path" style="transform-origin: 76.8499px 9.03445px; animation: 1s linear -0.06s infinite normal forwards running breath-029062a3-4f63-4066-95fc-5bdd485d9b2f; transform: scale(0.91);"><path d="M169.78-0.62L169.78-0.62L169.78-0.62Q168.77-1.63 168.77-3.07L168.77-3.07L168.77-3.07Q168.77-4.51 169.78-5.54L169.78-5.54L169.78-5.54Q170.78-6.58 172.22-6.58L172.22-6.58L172.22-6.58Q173.66-6.58 174.70-5.54L174.70-5.54L174.70-5.54Q175.73-4.51 175.73-3.07L175.73-3.07L175.73-3.07Q175.73-1.63 174.70-0.62L174.70-0.62L174.70-0.62Q173.66 0.38 172.22 0.38L172.22 0.38L172.22 0.38Q170.78 0.38 169.78-0.62" fill="#1d0e0b" stroke="none" stroke-width="none" transform="translate(-95.39999389648438,12.134435136101457)" style="fill: rgb(243, 231, 201); animation-play-state: running; animation-delay: 0s;"></path></g><g class="path" style="transform-origin: 88.22px 9.03446px; animation: 1s linear 0s infinite normal forwards running breath-029062a3-4f63-4066-95fc-5bdd485d9b2f; transform: scale(0.91);"><path d="M181.15-0.62L181.15-0.62L181.15-0.62Q180.14-1.63 180.14-3.07L180.14-3.07L180.14-3.07Q180.14-4.51 181.15-5.54L181.15-5.54L181.15-5.54Q182.16-6.58 183.60-6.58L183.60-6.58L183.60-6.58Q185.04-6.58 186.07-5.54L186.07-5.54L186.07-5.54Q187.10-4.51 187.10-3.07L187.10-3.07L187.10-3.07Q187.10-1.63 186.07-0.62L186.07-0.62L186.07-0.62Q185.04 0.38 183.60 0.38L183.60 0.38L183.60 0.38Q182.16 0.38 181.15-0.62" fill="#1d0e0b" stroke="none" stroke-width="none" transform="translate(-95.39999389648438,12.134435136101457)" style="fill: rgb(0, 0, 0); animation-play-state: running; animation-delay: 0s;"></path></g></g>
</g>
<style id="breath-029062a3-4f63-4066-95fc-5bdd485d9b2f" data-anikit="">@keyframes breath-029062a3-4f63-4066-95fc-5bdd485d9b2f
{
  0% {
    animation-timing-function: cubic-bezier(0.9647,0.2413,-0.0705,0.7911);
    transform: scale(0.9099999999999999);
  }
  51% {
    animation-timing-function: cubic-bezier(0.9226,0.2631,-0.0308,0.7628);
    transform: scale(1.02994);
  }
  100% {
    transform: scale(0.9099999999999999);
  }
}</style><style id="breath-029062a3-4f63-4066-95fc-5bdd485d9b2f" data-anikit="">@keyframes breath-029062a3-4f63-4066-95fc-5bdd485d9b2f
{
  0% {
    animation-timing-function: cubic-bezier(0.9647,0.2413,-0.0705,0.7911);
    transform: scale(0.9099999999999999);
  }
  51% {
    animation-timing-function: cubic-bezier(0.9226,0.2631,-0.0308,0.7628);
    transform: scale(1.02994);
  }
  100% {
    transform: scale(0.9099999999999999);
  }
}</style></svg>